<mxfile host="65bd71144e">
    <diagram id="MlMpe3PwIwaoGsM2YKS2" name="EventLoop">
        <mxGraphModel dx="2728" dy="1959" grid="1" gridSize="10" guides="1" tooltips="1" connect="1" arrows="1" fold="1" page="1" pageScale="1" pageWidth="850" pageHeight="1100" background="none" math="0" shadow="0">
            <root>
                <mxCell id="0"/>
                <mxCell id="1" parent="0"/>
                <mxCell id="15" value="" style="edgeStyle=none;shape=flexArrow;html=1;" edge="1" parent="1" source="4" target="11">
                    <mxGeometry relative="1" as="geometry"/>
                </mxCell>
                <mxCell id="4" value="&lt;div style=&quot;color: rgb(204, 204, 204); background-color: rgb(31, 31, 31); font-family: Consolas, &amp;quot;Courier New&amp;quot;, monospace; font-size: 14px; line-height: 19px;&quot;&gt;&lt;span style=&quot;color: #6a9955;&quot;&gt;IModelApp.eventLoop&lt;/span&gt;&lt;/div&gt;" style="whiteSpace=wrap;html=1;" parent="1" vertex="1">
                    <mxGeometry x="-20" y="340" width="210" height="60" as="geometry"/>
                </mxCell>
                <mxCell id="7" value="&lt;div style=&quot;color: rgb(204, 204, 204); background-color: rgb(31, 31, 31); font-family: Consolas, &amp;quot;Courier New&amp;quot;, monospace; font-size: 14px; line-height: 19px;&quot;&gt;&lt;span style=&quot;color: #4ec9b0;&quot;&gt;IModelApp&lt;/span&gt;.&lt;span style=&quot;color: #9cdcfe;&quot;&gt;toolAdmin&lt;/span&gt;.&lt;span style=&quot;color: #dcdcaa;&quot;&gt;processEvent&lt;/span&gt;()&lt;/div&gt;" style="whiteSpace=wrap;html=1;" vertex="1" parent="1">
                    <mxGeometry x="300" y="240" width="300" height="60" as="geometry"/>
                </mxCell>
                <mxCell id="42" style="edgeStyle=none;shape=flexArrow;html=1;entryX=0;entryY=0.5;entryDx=0;entryDy=0;" edge="1" parent="1" source="9" target="41">
                    <mxGeometry relative="1" as="geometry"/>
                </mxCell>
                <mxCell id="9" value="&lt;div style=&quot;color: rgb(204, 204, 204); background-color: rgb(31, 31, 31); font-family: Consolas, &amp;quot;Courier New&amp;quot;, monospace; font-size: 14px; line-height: 19px;&quot;&gt;&lt;div style=&quot;line-height: 19px;&quot;&gt;&lt;span style=&quot;color: #4ec9b0;&quot;&gt;IModelApp&lt;/span&gt;.&lt;span style=&quot;color: #9cdcfe;&quot;&gt;viewManager&lt;/span&gt;.&lt;span style=&quot;color: #dcdcaa;&quot;&gt;renderLoop&lt;/span&gt;()&lt;/div&gt;&lt;/div&gt;" style="whiteSpace=wrap;html=1;" vertex="1" parent="1">
                    <mxGeometry x="300" y="340" width="300" height="60" as="geometry"/>
                </mxCell>
                <mxCell id="10" value="&lt;div style=&quot;color: rgb(204, 204, 204); background-color: rgb(31, 31, 31); font-family: Consolas, &amp;quot;Courier New&amp;quot;, monospace; font-size: 14px; line-height: 19px;&quot;&gt;&lt;div style=&quot;line-height: 19px;&quot;&gt;&lt;div style=&quot;line-height: 19px;&quot;&gt;&lt;span style=&quot;color: #4ec9b0;&quot;&gt;IModelApp&lt;/span&gt;.&lt;span style=&quot;color: #9cdcfe;&quot;&gt;tileAdmin&lt;/span&gt;.&lt;span style=&quot;color: #dcdcaa;&quot;&gt;process&lt;/span&gt;()&lt;/div&gt;&lt;/div&gt;&lt;/div&gt;" style="whiteSpace=wrap;html=1;" vertex="1" parent="1">
                    <mxGeometry x="300" y="440" width="300" height="60" as="geometry"/>
                </mxCell>
                <mxCell id="11" value="" style="shape=curlyBracket;whiteSpace=wrap;html=1;rounded=1;labelPosition=left;verticalLabelPosition=middle;align=right;verticalAlign=middle;" vertex="1" parent="1">
                    <mxGeometry x="260" y="280" width="20" height="190" as="geometry"/>
                </mxCell>
                <mxCell id="14" style="edgeStyle=none;shape=flexArrow;html=1;" edge="1" parent="1" source="12" target="4">
                    <mxGeometry relative="1" as="geometry"/>
                </mxCell>
                <mxCell id="12" value="&lt;div style=&quot;color: rgb(204, 204, 204); background-color: rgb(31, 31, 31); font-family: Consolas, &amp;quot;Courier New&amp;quot;, monospace; font-size: 14px; line-height: 19px;&quot;&gt;&lt;span style=&quot;color: #6a9955;&quot;&gt;IModelApp.&lt;/span&gt;&lt;span style=&quot;color: rgb(220, 220, 170);&quot;&gt;requestNextAnimation&lt;/span&gt;&lt;/div&gt;" style="whiteSpace=wrap;html=1;" vertex="1" parent="1">
                    <mxGeometry x="-380" y="340" width="280" height="60" as="geometry"/>
                </mxCell>
                <mxCell id="13" value="&lt;div style=&quot;color: rgb(204, 204, 204); background-color: rgb(31, 31, 31); font-family: Consolas, &amp;quot;Courier New&amp;quot;, monospace; font-size: 14px; line-height: 19px;&quot;&gt;&lt;span style=&quot;color: #dcdcaa;&quot;&gt;ToolAdmin.getNextEvent&lt;/span&gt;&lt;/div&gt;" style="whiteSpace=wrap;html=1;" vertex="1" parent="1">
                    <mxGeometry x="-790" y="221" width="280" height="60" as="geometry"/>
                </mxCell>
                <mxCell id="18" value="&lt;div style=&quot;color: rgb(204, 204, 204); background-color: rgb(31, 31, 31); font-family: Consolas, &amp;quot;Courier New&amp;quot;, monospace; font-size: 14px; line-height: 19px;&quot;&gt;&lt;span style=&quot;color: #dcdcaa;&quot;&gt;ToolAdmin.addEvent&lt;/span&gt;&lt;/div&gt;" style="whiteSpace=wrap;html=1;" vertex="1" parent="1">
                    <mxGeometry x="-790" y="135" width="280" height="60" as="geometry"/>
                </mxCell>
                <mxCell id="20" value="&lt;div style=&quot;color: rgb(204, 204, 204); background-color: rgb(31, 31, 31); font-family: Consolas, &amp;quot;Courier New&amp;quot;, monospace; font-size: 14px; line-height: 19px;&quot;&gt;&lt;div style=&quot;line-height: 19px;&quot;&gt;&lt;span style=&quot;color: rgb(106, 153, 85);&quot;&gt;IModelApp.&lt;/span&gt;&lt;span style=&quot;color: #dcdcaa;&quot;&gt;requestIntervalAnimation&lt;/span&gt;&lt;/div&gt;&lt;/div&gt;" style="whiteSpace=wrap;html=1;" vertex="1" parent="1">
                    <mxGeometry x="-790" y="305" width="280" height="60" as="geometry"/>
                </mxCell>
                <mxCell id="22" value="&lt;div style=&quot;color: rgb(204, 204, 204); background-color: rgb(31, 31, 31); font-family: Consolas, &amp;quot;Courier New&amp;quot;, monospace; font-size: 14px; line-height: 19px;&quot;&gt;&lt;div style=&quot;line-height: 19px;&quot;&gt;&lt;span style=&quot;color: rgb(106, 153, 85);&quot;&gt;IModelApp.&lt;/span&gt;&lt;span style=&quot;color: rgb(220, 220, 170);&quot;&gt;startEventLoop&lt;/span&gt;&lt;/div&gt;&lt;/div&gt;" style="whiteSpace=wrap;html=1;" vertex="1" parent="1">
                    <mxGeometry x="-790" y="385" width="280" height="60" as="geometry"/>
                </mxCell>
                <mxCell id="23" value="&lt;div style=&quot;color: rgb(204, 204, 204); background-color: rgb(31, 31, 31); font-family: Consolas, &amp;quot;Courier New&amp;quot;, monospace; font-size: 14px; line-height: 19px;&quot;&gt;&lt;div style=&quot;line-height: 19px;&quot;&gt;&lt;div style=&quot;line-height: 19px;&quot;&gt;&lt;span style=&quot;color: #4ec9b0;&quot;&gt;IModelApp&lt;/span&gt;.&lt;span style=&quot;color: #9cdcfe;&quot;&gt;_wantEventLoop&lt;/span&gt;&lt;/div&gt;&lt;/div&gt;&lt;/div&gt;" style="ellipse;whiteSpace=wrap;html=1;" vertex="1" parent="1">
                    <mxGeometry x="-100" y="150" width="320" height="70" as="geometry"/>
                </mxCell>
                <mxCell id="24" value="&lt;div style=&quot;color: rgb(204, 204, 204); background-color: rgb(31, 31, 31); font-family: Consolas, &amp;quot;Courier New&amp;quot;, monospace; font-size: 14px; line-height: 19px;&quot;&gt;&lt;div style=&quot;line-height: 19px;&quot;&gt;&lt;div style=&quot;line-height: 19px;&quot;&gt;&lt;span style=&quot;color: #dcdcaa;&quot;&gt;ViewManager.onSelectionSetChanged&lt;/span&gt;&lt;/div&gt;&lt;/div&gt;&lt;/div&gt;" style="whiteSpace=wrap;html=1;" vertex="1" parent="1">
                    <mxGeometry x="-790" y="465" width="280" height="60" as="geometry"/>
                </mxCell>
                <mxCell id="25" value="&lt;div style=&quot;color: rgb(204, 204, 204); background-color: rgb(31, 31, 31); font-family: Consolas, &amp;quot;Courier New&amp;quot;, monospace; font-size: 14px; line-height: 19px;&quot;&gt;&lt;div style=&quot;line-height: 19px;&quot;&gt;&lt;div style=&quot;line-height: 19px;&quot;&gt;&lt;span style=&quot;color: #dcdcaa;&quot;&gt;ViewManager.&lt;/span&gt;&lt;span style=&quot;color: rgb(220, 220, 170);&quot;&gt;invalidateScenes&lt;/span&gt;&lt;/div&gt;&lt;/div&gt;&lt;/div&gt;" style="whiteSpace=wrap;html=1;" vertex="1" parent="1">
                    <mxGeometry x="-790" y="545" width="280" height="60" as="geometry"/>
                </mxCell>
                <mxCell id="26" value="&lt;div style=&quot;color: rgb(204, 204, 204); background-color: rgb(31, 31, 31); font-family: Consolas, &amp;quot;Courier New&amp;quot;, monospace; font-size: 14px; line-height: 19px;&quot;&gt;&lt;div style=&quot;line-height: 19px;&quot;&gt;&lt;span style=&quot;color: #4ec9b0;&quot;&gt;IModelApp&lt;/span&gt;.&lt;span style=&quot;color: #9cdcfe;&quot;&gt;_animationRequested&lt;/span&gt;&lt;/div&gt;&lt;/div&gt;" style="ellipse;whiteSpace=wrap;html=1;" vertex="1" parent="1">
                    <mxGeometry x="-100" y="-20" width="320" height="70" as="geometry"/>
                </mxCell>
                <mxCell id="27" value="&lt;div style=&quot;color: rgb(204, 204, 204); background-color: rgb(31, 31, 31); font-family: Consolas, &amp;quot;Courier New&amp;quot;, monospace; font-size: 14px; line-height: 19px;&quot;&gt;&lt;div style=&quot;line-height: 19px;&quot;&gt;&lt;div style=&quot;line-height: 19px;&quot;&gt;&lt;span style=&quot;color: rgb(220, 220, 170);&quot;&gt;ViewManager.&lt;/span&gt;&lt;span style=&quot;color: #9cdcfe;&quot;&gt;_invalidateScenes&lt;/span&gt;&lt;/div&gt;&lt;/div&gt;&lt;/div&gt;" style="ellipse;whiteSpace=wrap;html=1;" vertex="1" parent="1">
                    <mxGeometry x="-100" y="70" width="320" height="70" as="geometry"/>
                </mxCell>
                <mxCell id="29" value="&lt;div style=&quot;color: rgb(204, 204, 204); background-color: rgb(31, 31, 31); font-family: Consolas, &amp;quot;Courier New&amp;quot;, monospace; font-size: 14px; line-height: 19px;&quot;&gt;&lt;div style=&quot;line-height: 19px;&quot;&gt;&lt;span style=&quot;color: #dcdcaa;&quot;&gt;ViewPort.invalidateDecorations&lt;/span&gt;&lt;/div&gt;&lt;/div&gt;" style="whiteSpace=wrap;html=1;" vertex="1" parent="1">
                    <mxGeometry x="-1090" y="135" width="280" height="60" as="geometry"/>
                </mxCell>
                <mxCell id="30" value="&lt;div style=&quot;color: rgb(204, 204, 204); background-color: rgb(31, 31, 31); font-family: Consolas, &amp;quot;Courier New&amp;quot;, monospace; font-size: 14px; line-height: 19px;&quot;&gt;&lt;div style=&quot;line-height: 19px;&quot;&gt;&lt;span style=&quot;color: #dcdcaa;&quot;&gt;ViewPort.&lt;/span&gt;&lt;span style=&quot;color: rgb(220, 220, 170);&quot;&gt;invalidateScene&lt;/span&gt;&lt;/div&gt;&lt;/div&gt;" style="whiteSpace=wrap;html=1;" vertex="1" parent="1">
                    <mxGeometry x="-1090" y="221" width="280" height="60" as="geometry"/>
                </mxCell>
                <mxCell id="31" value="&lt;div style=&quot;color: rgb(204, 204, 204); background-color: rgb(31, 31, 31); font-family: Consolas, &amp;quot;Courier New&amp;quot;, monospace; font-size: 14px; line-height: 19px;&quot;&gt;&lt;div style=&quot;line-height: 19px;&quot;&gt;&lt;span style=&quot;color: #dcdcaa;&quot;&gt;ViewPort.&lt;/span&gt;&lt;span style=&quot;color: rgb(220, 220, 170);&quot;&gt;invalidateRenderPlan&lt;/span&gt;&lt;/div&gt;&lt;/div&gt;" style="whiteSpace=wrap;html=1;" vertex="1" parent="1">
                    <mxGeometry x="-1090" y="305" width="280" height="60" as="geometry"/>
                </mxCell>
                <mxCell id="32" value="&lt;div style=&quot;color: rgb(204, 204, 204); background-color: rgb(31, 31, 31); font-family: Consolas, &amp;quot;Courier New&amp;quot;, monospace; font-size: 14px; line-height: 19px;&quot;&gt;&lt;div style=&quot;line-height: 19px;&quot;&gt;&lt;span style=&quot;color: #dcdcaa;&quot;&gt;ViewPort.&lt;/span&gt;&lt;span style=&quot;color: rgb(220, 220, 170);&quot;&gt;invalidateController&lt;/span&gt;&lt;/div&gt;&lt;/div&gt;" style="whiteSpace=wrap;html=1;" vertex="1" parent="1">
                    <mxGeometry x="-1090" y="385" width="280" height="60" as="geometry"/>
                </mxCell>
                <mxCell id="33" value="&lt;div style=&quot;color: rgb(204, 204, 204); background-color: rgb(31, 31, 31); font-family: Consolas, &amp;quot;Courier New&amp;quot;, monospace; font-size: 14px; line-height: 19px;&quot;&gt;&lt;div style=&quot;line-height: 19px;&quot;&gt;&lt;span style=&quot;color: #dcdcaa;&quot;&gt;ViewPort.&lt;/span&gt;&lt;span style=&quot;color: rgb(220, 220, 170);&quot;&gt;requestRedraw&lt;/span&gt;&lt;/div&gt;&lt;/div&gt;" style="whiteSpace=wrap;html=1;" vertex="1" parent="1">
                    <mxGeometry x="-1090" y="465" width="280" height="60" as="geometry"/>
                </mxCell>
                <mxCell id="34" value="&lt;div style=&quot;color: rgb(204, 204, 204); background-color: rgb(31, 31, 31); font-family: Consolas, &amp;quot;Courier New&amp;quot;, monospace; font-size: 14px; line-height: 19px;&quot;&gt;&lt;div style=&quot;line-height: 19px;&quot;&gt;&lt;span style=&quot;color: #dcdcaa;&quot;&gt;ViewPort.&lt;/span&gt;&lt;span style=&quot;color: rgb(220, 220, 170);&quot;&gt;renderFrame&lt;/span&gt;&lt;/div&gt;&lt;/div&gt;" style="whiteSpace=wrap;html=1;" vertex="1" parent="1">
                    <mxGeometry x="-1090" y="545" width="280" height="60" as="geometry"/>
                </mxCell>
                <mxCell id="37" style="edgeStyle=none;shape=flexArrow;html=1;entryX=0;entryY=0.5;entryDx=0;entryDy=0;" edge="1" parent="1" source="35" target="12">
                    <mxGeometry relative="1" as="geometry"/>
                </mxCell>
                <mxCell id="35" value="" style="shape=curlyBracket;whiteSpace=wrap;html=1;rounded=1;flipH=1;labelPosition=right;verticalLabelPosition=middle;align=left;verticalAlign=middle;" vertex="1" parent="1">
                    <mxGeometry x="-490" y="175" width="20" height="390" as="geometry"/>
                </mxCell>
                <mxCell id="40" style="edgeStyle=none;shape=flexArrow;html=1;" edge="1" parent="1" source="38" target="39">
                    <mxGeometry relative="1" as="geometry"/>
                </mxCell>
                <mxCell id="38" value="&lt;div style=&quot;color: rgb(204, 204, 204); background-color: rgb(31, 31, 31); font-family: Consolas, &amp;quot;Courier New&amp;quot;, monospace; font-size: 14px; line-height: 19px;&quot;&gt;&lt;span style=&quot;color: #dcdcaa;&quot;&gt;addViewport&lt;/span&gt;&lt;/div&gt;" style="whiteSpace=wrap;html=1;" vertex="1" parent="1">
                    <mxGeometry x="-390" y="690" width="120" height="60" as="geometry"/>
                </mxCell>
                <mxCell id="39" value="&lt;div style=&quot;color: rgb(204, 204, 204); background-color: rgb(31, 31, 31); font-family: Consolas, &amp;quot;Courier New&amp;quot;, monospace; font-size: 14px; line-height: 19px;&quot;&gt;&lt;div style=&quot;line-height: 19px;&quot;&gt;&lt;span style=&quot;color: #dcdcaa;&quot;&gt;startEventLoop&lt;/span&gt;&lt;/div&gt;&lt;/div&gt;" style="whiteSpace=wrap;html=1;" vertex="1" parent="1">
                    <mxGeometry x="-200" y="690" width="120" height="60" as="geometry"/>
                </mxCell>
                <mxCell id="41" value="&lt;div style=&quot;color: rgb(204, 204, 204); background-color: rgb(31, 31, 31); font-family: Consolas, &amp;quot;Courier New&amp;quot;, monospace; font-size: 14px; line-height: 19px;&quot;&gt;&lt;span style=&quot;color: #4fc1ff;&quot;&gt;vp&lt;/span&gt;.&lt;span style=&quot;color: #dcdcaa;&quot;&gt;renderFrame&lt;/span&gt;()&lt;/div&gt;" style="whiteSpace=wrap;html=1;" vertex="1" parent="1">
                    <mxGeometry x="680" y="340" width="180" height="60" as="geometry"/>
                </mxCell>
                <mxCell id="43" value="IModelApp" style="rhombus;whiteSpace=wrap;html=1;" vertex="1" parent="1">
                    <mxGeometry x="940" y="175" width="190" height="80" as="geometry"/>
                </mxCell>
                <mxCell id="44" value="ViewManager" style="rhombus;whiteSpace=wrap;html=1;" vertex="1" parent="1">
                    <mxGeometry x="940" y="281" width="190" height="80" as="geometry"/>
                </mxCell>
                <mxCell id="45" value="Viewport" style="rhombus;whiteSpace=wrap;html=1;" vertex="1" parent="1">
                    <mxGeometry x="1170" y="280" width="190" height="80" as="geometry"/>
                </mxCell>
                <mxCell id="46" value="ToolAdmin" style="rhombus;whiteSpace=wrap;html=1;" vertex="1" parent="1">
                    <mxGeometry x="1400" y="280" width="190" height="80" as="geometry"/>
                </mxCell>
                <mxCell id="47" value="TileAdmin" style="rhombus;whiteSpace=wrap;html=1;" vertex="1" parent="1">
                    <mxGeometry x="940" y="385" width="190" height="80" as="geometry"/>
                </mxCell>
            </root>
        </mxGraphModel>
    </diagram>
    <diagram id="BKULeVVqHbugdAor-Aku" name="Exception">
        <mxGraphModel dx="1825" dy="787" grid="1" gridSize="10" guides="1" tooltips="1" connect="1" arrows="1" fold="1" page="1" pageScale="1" pageWidth="850" pageHeight="1100" math="0" shadow="0">
            <root>
                <mxCell id="0"/>
                <mxCell id="1" parent="0"/>
                <mxCell id="rr-5G4Vll8Gumy0VcT86-1" value="&lt;div style=&quot;color: rgb(204, 204, 204); background-color: rgb(31, 31, 31); font-family: Consolas, &amp;quot;Courier New&amp;quot;, monospace; font-size: 14px; line-height: 19px;&quot;&gt;&lt;span style=&quot;color: #6a9955;&quot;&gt;ToolAdmin.exceptionHandler&lt;/span&gt;&lt;/div&gt;" style="whiteSpace=wrap;html=1;" vertex="1" parent="1">
                    <mxGeometry x="200" y="210" width="250" height="60" as="geometry"/>
                </mxCell>
                <mxCell id="rr-5G4Vll8Gumy0VcT86-3" style="edgeStyle=none;html=1;entryX=0.5;entryY=0;entryDx=0;entryDy=0;" edge="1" parent="1" source="rr-5G4Vll8Gumy0VcT86-2" target="rr-5G4Vll8Gumy0VcT86-1">
                    <mxGeometry relative="1" as="geometry"/>
                </mxCell>
                <mxCell id="rr-5G4Vll8Gumy0VcT86-2" value="&lt;div style=&quot;color: rgb(204, 204, 204); background-color: rgb(31, 31, 31); font-family: Consolas, &amp;quot;Courier New&amp;quot;, monospace; font-size: 14px; line-height: 19px;&quot;&gt;&lt;span style=&quot;color: #6a9955;&quot;&gt;RenderSystem.contextLossHandler&lt;/span&gt;&lt;/div&gt;" style="whiteSpace=wrap;html=1;" vertex="1" parent="1">
                    <mxGeometry x="200" y="30" width="250" height="60" as="geometry"/>
                </mxCell>
                <mxCell id="rr-5G4Vll8Gumy0VcT86-5" style="edgeStyle=none;html=1;" edge="1" parent="1" source="rr-5G4Vll8Gumy0VcT86-4" target="rr-5G4Vll8Gumy0VcT86-1">
                    <mxGeometry relative="1" as="geometry"/>
                </mxCell>
                <mxCell id="rr-5G4Vll8Gumy0VcT86-4" value="&lt;b&gt;ToolAdmin.&lt;span style=&quot;color: rgb(220, 220, 170); background-color: rgb(31, 31, 31); font-family: Consolas, &amp;quot;Courier New&amp;quot;, monospace; font-size: 14px;&quot;&gt;processEvent&lt;/span&gt;&lt;/b&gt;" style="whiteSpace=wrap;html=1;" vertex="1" parent="1">
                    <mxGeometry x="590" y="210" width="200" height="60" as="geometry"/>
                </mxCell>
                <mxCell id="rr-5G4Vll8Gumy0VcT86-7" style="edgeStyle=none;html=1;entryX=1;entryY=0.5;entryDx=0;entryDy=0;fontColor=#FF0000;exitX=0.16;exitY=0.55;exitDx=0;exitDy=0;exitPerimeter=0;" edge="1" parent="1" source="rr-5G4Vll8Gumy0VcT86-6" target="rr-5G4Vll8Gumy0VcT86-4">
                    <mxGeometry relative="1" as="geometry"/>
                </mxCell>
                <mxCell id="rr-5G4Vll8Gumy0VcT86-10" style="edgeStyle=none;html=1;entryX=0.5;entryY=1;entryDx=0;entryDy=0;fontColor=#FF0000;exitX=0.4;exitY=0.1;exitDx=0;exitDy=0;exitPerimeter=0;" edge="1" parent="1" source="rr-5G4Vll8Gumy0VcT86-11" target="rr-5G4Vll8Gumy0VcT86-8">
                    <mxGeometry relative="1" as="geometry">
                        <mxPoint x="1000" y="570" as="sourcePoint"/>
                    </mxGeometry>
                </mxCell>
                <mxCell id="rr-5G4Vll8Gumy0VcT86-6" value="&lt;div style=&quot;color: rgb(204, 204, 204); background-color: rgb(31, 31, 31); font-family: Consolas, &amp;quot;Courier New&amp;quot;, monospace; font-size: 14px; line-height: 19px;&quot;&gt;&lt;div&gt;&amp;nbsp; &lt;span style=&quot;color: #569cd6;&quot;&gt;public&lt;/span&gt; &lt;span style=&quot;color: #569cd6;&quot;&gt;async&lt;/span&gt; &lt;span style=&quot;color: #dcdcaa;&quot;&gt;processEvent&lt;/span&gt;()&lt;span style=&quot;color: #d4d4d4;&quot;&gt;:&lt;/span&gt; &lt;span style=&quot;color: #4ec9b0;&quot;&gt;Promise&lt;/span&gt;&amp;lt;&lt;span style=&quot;color: #4ec9b0;&quot;&gt;void&lt;/span&gt;&amp;gt; {&lt;/div&gt;&lt;div&gt;&amp;nbsp; &amp;nbsp; &lt;span style=&quot;color: #c586c0;&quot;&gt;if&lt;/span&gt; (&lt;span style=&quot;color: #569cd6;&quot;&gt;this&lt;/span&gt;.&lt;span style=&quot;color: #9cdcfe;&quot;&gt;_processingEvent&lt;/span&gt;)&lt;/div&gt;&lt;div&gt;&amp;nbsp; &amp;nbsp; &amp;nbsp; &lt;span style=&quot;color: #c586c0;&quot;&gt;return&lt;/span&gt;; &lt;span style=&quot;color: #6a9955;&quot;&gt;// we're still working on the previous event.&lt;/span&gt;&lt;/div&gt;&lt;br&gt;&lt;div&gt;&amp;nbsp; &amp;nbsp; &lt;span style=&quot;color: #c586c0;&quot;&gt;try&lt;/span&gt; {&lt;/div&gt;&lt;div&gt;&amp;nbsp; &amp;nbsp; &amp;nbsp; &lt;span style=&quot;color: #569cd6;&quot;&gt;this&lt;/span&gt;.&lt;span style=&quot;color: #9cdcfe;&quot;&gt;_processingEvent&lt;/span&gt; &lt;span style=&quot;color: #d4d4d4;&quot;&gt;=&lt;/span&gt; &lt;span style=&quot;color: #569cd6;&quot;&gt;true&lt;/span&gt;; &amp;nbsp;&lt;span style=&quot;color: #6a9955;&quot;&gt;// we can't allow any further event processing until the current event completes.&lt;/span&gt;&lt;/div&gt;&lt;div&gt;&amp;nbsp; &amp;nbsp; &amp;nbsp; &lt;span style=&quot;color: #c586c0;&quot;&gt;await&lt;/span&gt; &lt;span style=&quot;color: #569cd6;&quot;&gt;this&lt;/span&gt;.&lt;span style=&quot;color: #dcdcaa;&quot;&gt;processNextEvent&lt;/span&gt;();&lt;/div&gt;&lt;div&gt;&amp;nbsp; &amp;nbsp; } &lt;span style=&quot;color: #c586c0;&quot;&gt;catch&lt;/span&gt; (&lt;span style=&quot;color: #9cdcfe;&quot;&gt;exception&lt;/span&gt;) {&lt;/div&gt;&lt;div&gt;&amp;nbsp; &amp;nbsp; &amp;nbsp; &lt;span style=&quot;color: #c586c0;&quot;&gt;await&lt;/span&gt; &lt;span style=&quot;color: #4ec9b0;&quot;&gt;ToolAdmin&lt;/span&gt;.&lt;span style=&quot;color: #dcdcaa;&quot;&gt;exceptionHandler&lt;/span&gt;(&lt;span style=&quot;color: #9cdcfe;&quot;&gt;exception&lt;/span&gt;); &lt;span style=&quot;color: #6a9955;&quot;&gt;// we don't attempt to exit here&lt;/span&gt;&lt;/div&gt;&lt;div&gt;&amp;nbsp; &amp;nbsp; } &lt;span style=&quot;color: #c586c0;&quot;&gt;finally&lt;/span&gt; {&lt;/div&gt;&lt;div&gt;&amp;nbsp; &amp;nbsp; &amp;nbsp; &lt;span style=&quot;color: #569cd6;&quot;&gt;this&lt;/span&gt;.&lt;span style=&quot;color: #9cdcfe;&quot;&gt;_processingEvent&lt;/span&gt; &lt;span style=&quot;color: #d4d4d4;&quot;&gt;=&lt;/span&gt; &lt;span style=&quot;color: #569cd6;&quot;&gt;false&lt;/span&gt;; &lt;span style=&quot;color: #6a9955;&quot;&gt;// this event is now finished. Allow processing next time through.&lt;/span&gt;&lt;/div&gt;&lt;div&gt;&amp;nbsp; &amp;nbsp; }&lt;/div&gt;&lt;div&gt;&amp;nbsp; }&lt;/div&gt;&lt;/div&gt;" style="ellipse;shape=cloud;whiteSpace=wrap;html=1;fontColor=#FF0000;align=left;" vertex="1" parent="1">
                    <mxGeometry x="870" y="70" width="810" height="310" as="geometry"/>
                </mxCell>
                <mxCell id="rr-5G4Vll8Gumy0VcT86-9" style="edgeStyle=none;html=1;entryX=0.5;entryY=1;entryDx=0;entryDy=0;fontColor=#FF0000;" edge="1" parent="1" source="rr-5G4Vll8Gumy0VcT86-8" target="rr-5G4Vll8Gumy0VcT86-1">
                    <mxGeometry relative="1" as="geometry"/>
                </mxCell>
                <mxCell id="rr-5G4Vll8Gumy0VcT86-8" value="&lt;b&gt;ToolAdmin.&lt;span style=&quot;color: rgb(220, 220, 170); background-color: rgb(31, 31, 31); font-family: Consolas, &amp;quot;Courier New&amp;quot;, monospace; font-size: 14px;&quot;&gt;eventLoop&lt;/span&gt;&lt;/b&gt;" style="whiteSpace=wrap;html=1;" vertex="1" parent="1">
                    <mxGeometry x="200" y="380" width="250" height="60" as="geometry"/>
                </mxCell>
                <mxCell id="rr-5G4Vll8Gumy0VcT86-11" value="&lt;div style=&quot;color: rgb(204, 204, 204); background-color: rgb(31, 31, 31); font-family: Consolas, &amp;quot;Courier New&amp;quot;, monospace; font-size: 14px; line-height: 19px;&quot;&gt;&lt;div&gt;&amp;nbsp; &lt;span style=&quot;color: #569cd6;&quot;&gt;private&lt;/span&gt; &lt;span style=&quot;color: #569cd6;&quot;&gt;static&lt;/span&gt; &lt;span style=&quot;color: #dcdcaa;&quot;&gt;eventLoop&lt;/span&gt;() {&lt;/div&gt;&lt;div&gt;&amp;nbsp; &amp;nbsp; &lt;span style=&quot;color: #4ec9b0;&quot;&gt;IModelApp&lt;/span&gt;.&lt;span style=&quot;color: #9cdcfe;&quot;&gt;_animationRequested&lt;/span&gt; &lt;span style=&quot;color: #d4d4d4;&quot;&gt;=&lt;/span&gt; &lt;span style=&quot;color: #569cd6;&quot;&gt;false&lt;/span&gt;;&lt;/div&gt;&lt;div&gt;&amp;nbsp; &amp;nbsp; &lt;span style=&quot;color: #c586c0;&quot;&gt;if&lt;/span&gt; (&lt;span style=&quot;color: #d4d4d4;&quot;&gt;!&lt;/span&gt;&lt;span style=&quot;color: #4ec9b0;&quot;&gt;IModelApp&lt;/span&gt;.&lt;span style=&quot;color: #9cdcfe;&quot;&gt;_wantEventLoop&lt;/span&gt;) &lt;span style=&quot;color: #6a9955;&quot;&gt;// flag turned on at startup&lt;/span&gt;&lt;/div&gt;&lt;div&gt;&amp;nbsp; &amp;nbsp; &amp;nbsp; &lt;span style=&quot;color: #c586c0;&quot;&gt;return&lt;/span&gt;;&lt;/div&gt;&lt;br&gt;&lt;div&gt;&amp;nbsp; &amp;nbsp; &lt;span style=&quot;color: #c586c0;&quot;&gt;try&lt;/span&gt; {&lt;/div&gt;&lt;div&gt;&amp;nbsp; &amp;nbsp; &amp;nbsp; &lt;span style=&quot;color: #4ec9b0;&quot;&gt;IModelApp&lt;/span&gt;.&lt;span style=&quot;color: #9cdcfe;&quot;&gt;toolAdmin&lt;/span&gt;.&lt;span style=&quot;color: #dcdcaa;&quot;&gt;processEvent&lt;/span&gt;(); &lt;span style=&quot;color: #6a9955;&quot;&gt;// eslint-disable-line @typescript-eslint/no-floating-promises&lt;/span&gt;&lt;/div&gt;&lt;div&gt;&amp;nbsp; &amp;nbsp; &amp;nbsp; &lt;span style=&quot;color: #4ec9b0;&quot;&gt;IModelApp&lt;/span&gt;.&lt;span style=&quot;color: #9cdcfe;&quot;&gt;viewManager&lt;/span&gt;.&lt;span style=&quot;color: #dcdcaa;&quot;&gt;renderLoop&lt;/span&gt;();&lt;/div&gt;&lt;div&gt;&amp;nbsp; &amp;nbsp; &amp;nbsp; &lt;span style=&quot;color: #4ec9b0;&quot;&gt;IModelApp&lt;/span&gt;.&lt;span style=&quot;color: #9cdcfe;&quot;&gt;tileAdmin&lt;/span&gt;.&lt;span style=&quot;color: #dcdcaa;&quot;&gt;process&lt;/span&gt;();&lt;/div&gt;&lt;div&gt;&amp;nbsp; &amp;nbsp; } &lt;span style=&quot;color: #c586c0;&quot;&gt;catch&lt;/span&gt; (&lt;span style=&quot;color: #9cdcfe;&quot;&gt;exception&lt;/span&gt;) {&lt;/div&gt;&lt;div&gt;&amp;nbsp; &amp;nbsp; &amp;nbsp; &lt;span style=&quot;color: #4ec9b0;&quot;&gt;ToolAdmin&lt;/span&gt;.&lt;span style=&quot;color: #dcdcaa;&quot;&gt;exceptionHandler&lt;/span&gt;(&lt;span style=&quot;color: #9cdcfe;&quot;&gt;exception&lt;/span&gt;); &lt;span style=&quot;color: #6a9955;&quot;&gt;// eslint-disable-line @typescript-eslint/no-floating-promises&lt;/span&gt;&lt;/div&gt;&lt;br&gt;&lt;div&gt;&amp;nbsp; &amp;nbsp; &amp;nbsp; &lt;span style=&quot;color: #4ec9b0;&quot;&gt;IModelApp&lt;/span&gt;.&lt;span style=&quot;color: #9cdcfe;&quot;&gt;_wantEventLoop&lt;/span&gt; &lt;span style=&quot;color: #d4d4d4;&quot;&gt;=&lt;/span&gt; &lt;span style=&quot;color: #569cd6;&quot;&gt;false&lt;/span&gt;;&lt;/div&gt;&lt;div&gt;&amp;nbsp; &amp;nbsp; &amp;nbsp; &lt;span style=&quot;color: #4ec9b0;&quot;&gt;IModelApp&lt;/span&gt;.&lt;span style=&quot;color: #9cdcfe;&quot;&gt;_animationRequested&lt;/span&gt; &lt;span style=&quot;color: #d4d4d4;&quot;&gt;=&lt;/span&gt; &lt;span style=&quot;color: #569cd6;&quot;&gt;true&lt;/span&gt;; &lt;span style=&quot;color: #6a9955;&quot;&gt;// unrecoverable after exception, don't request any further frames.&lt;/span&gt;&lt;/div&gt;&lt;div&gt;&amp;nbsp; &amp;nbsp; &amp;nbsp; &lt;span style=&quot;color: #9cdcfe;&quot;&gt;window&lt;/span&gt;.&lt;span style=&quot;color: #dcdcaa;&quot;&gt;removeEventListener&lt;/span&gt;(&lt;span style=&quot;color: #ce9178;&quot;&gt;&quot;resize&quot;&lt;/span&gt;, () &lt;span style=&quot;color: #569cd6;&quot;&gt;=&amp;gt;&lt;/span&gt; &lt;span style=&quot;color: #4ec9b0;&quot;&gt;IModelApp&lt;/span&gt;.&lt;span style=&quot;color: #dcdcaa;&quot;&gt;requestNextAnimation&lt;/span&gt;());&lt;/div&gt;&lt;div&gt;&amp;nbsp; &amp;nbsp; }&lt;/div&gt;&lt;div&gt;&amp;nbsp; }&lt;/div&gt;&lt;br&gt;&lt;/div&gt;" style="ellipse;shape=cloud;whiteSpace=wrap;html=1;fontColor=#FF0000;align=left;" vertex="1" parent="1">
                    <mxGeometry x="-20" y="580" width="870" height="360" as="geometry"/>
                </mxCell>
            </root>
        </mxGraphModel>
    </diagram>
</mxfile>